<svg width="17" height="35" viewBox="0 0 17 35" fill="none" xmlns="http://www.w3.org/2000/svg">
<path d="M10 0C12.1 0 14.2 0 16.3 0C16.3 2 16.3 4 16.3 6C15 6 13.8 6 12.6 6C11.4 6 10.9 6.5 10.8 7.7C10.8 8.8 10.8 9.8 10.8 10.9C10.8 11 10.8 11.1 10.8 11.3C12.6 11.3 14.5 11.3 16.3 11.3C16.1 13.4 15.9 15.4 15.7 17.5C14 17.5 12.4 17.5 10.8 17.5C10.8 23.3 10.8 29.2 10.8 35C8.4 35 6 35 3.5 35C3.5 34.8 3.5 34.6 3.5 34.4C3.5 29.1 3.5 23.8 3.5 18.5C3.5 17.5 3.5 17.5 2.5 17.5C1.7 17.5 0.9 17.5 0 17.5C0 15.4 0 13.4 0 11.3C1.2 11.3 2.3 11.3 3.4 11.3C3.4 10.1 3.4 8.9 3.4 7.7C3.4 6.9 3.5 6.2 3.6 5.4C4.3 2.8 5.9 1 8.5 0.3C9 0.2 9.5 0.1 10 0Z" fill="white"/>
</svg>
