<svg width="200" height="30" viewBox="0 0 200 30" fill="none" xmlns="http://www.w3.org/2000/svg">
<rect width="200" height="30" rx="6" fill="#232B35"/>
<path d="M48.5938 22V9.15039H51.3184V19.75H56.5303V22H48.5938ZM66.1719 22H58.7715V9.15039H66.1719V11.3828H61.4961V14.2041H65.8467V16.4365H61.4961V19.75H66.1719V22ZM76.7275 22L75.7959 18.9414H71.1113L70.1797 22H67.2441L71.7793 9.09766H75.1104L79.6631 22H76.7275ZM75.1455 16.6562C74.2842 13.8848 73.7979 12.3174 73.6865 11.9541C73.5811 11.5908 73.5049 11.3037 73.458 11.0928C73.2646 11.8428 72.7109 13.6973 71.7969 16.6562H75.1455ZM91.9502 15.4521C91.9502 17.5674 91.3467 19.1875 90.1396 20.3125C88.9385 21.4375 87.2012 22 84.9277 22H81.2891V9.15039H85.3232C87.4209 9.15039 89.0498 9.7041 90.21 10.8115C91.3701 11.9189 91.9502 13.4658 91.9502 15.4521ZM89.1201 15.5225C89.1201 12.7627 87.9014 11.3828 85.4639 11.3828H84.0137V19.75H85.1826C87.8076 19.75 89.1201 18.3408 89.1201 15.5225ZM102.014 22H94.6133V9.15039H102.014V11.3828H97.3379V14.2041H101.688V16.4365H97.3379V19.75H102.014V22ZM107.428 14.8545H108.307C109.168 14.8545 109.804 14.7109 110.214 14.4238C110.624 14.1367 110.829 13.6855 110.829 13.0703C110.829 12.4609 110.618 12.0273 110.196 11.7695C109.78 11.5117 109.133 11.3828 108.254 11.3828H107.428V14.8545ZM107.428 17.0693V22H104.703V9.15039H108.447C110.193 9.15039 111.485 9.46973 112.323 10.1084C113.161 10.7412 113.58 11.7051 113.58 13C113.58 13.7559 113.372 14.4297 112.956 15.0215C112.54 15.6074 111.951 16.0674 111.189 16.4014C113.123 19.29 114.383 21.1562 114.969 22H111.945L108.878 17.0693H107.428ZM116.586 9.15039H120.585C122.407 9.15039 123.729 9.41113 124.549 9.93262C125.375 10.4482 125.788 11.2715 125.788 12.4023C125.788 13.1699 125.606 13.7998 125.243 14.292C124.886 14.7842 124.408 15.0801 123.811 15.1797V15.2676C124.625 15.4492 125.211 15.7891 125.568 16.2871C125.932 16.7852 126.113 17.4473 126.113 18.2734C126.113 19.4453 125.688 20.3594 124.839 21.0156C123.995 21.6719 122.847 22 121.394 22H116.586V9.15039ZM119.311 14.2393H120.893C121.631 14.2393 122.164 14.125 122.492 13.8965C122.826 13.668 122.993 13.29 122.993 12.7627C122.993 12.2705 122.812 11.9189 122.448 11.708C122.091 11.4912 121.522 11.3828 120.743 11.3828H119.311V14.2393ZM119.311 16.4014V19.75H121.086C121.836 19.75 122.39 19.6064 122.747 19.3193C123.104 19.0322 123.283 18.5928 123.283 18.001C123.283 16.9346 122.521 16.4014 120.998 16.4014H119.311ZM140.343 15.5576C140.343 17.6846 139.815 19.3193 138.761 20.4619C137.706 21.6045 136.194 22.1758 134.226 22.1758C132.257 22.1758 130.745 21.6045 129.69 20.4619C128.636 19.3193 128.108 17.6787 128.108 15.54C128.108 13.4014 128.636 11.7695 129.69 10.6445C130.751 9.51367 132.269 8.94824 134.243 8.94824C136.218 8.94824 137.727 9.5166 138.77 10.6533C139.818 11.79 140.343 13.4248 140.343 15.5576ZM130.965 15.5576C130.965 16.9932 131.237 18.0742 131.782 18.8008C132.327 19.5273 133.142 19.8906 134.226 19.8906C136.399 19.8906 137.486 18.4463 137.486 15.5576C137.486 12.6631 136.405 11.2158 134.243 11.2158C133.159 11.2158 132.342 11.582 131.791 12.3145C131.24 13.041 130.965 14.1221 130.965 15.5576ZM150.872 22L149.94 18.9414H145.256L144.324 22H141.389L145.924 9.09766H149.255L153.808 22H150.872ZM149.29 16.6562C148.429 13.8848 147.942 12.3174 147.831 11.9541C147.726 11.5908 147.649 11.3037 147.603 11.0928C147.409 11.8428 146.855 13.6973 145.941 16.6562H149.29ZM158.158 14.8545H159.037C159.898 14.8545 160.534 14.7109 160.944 14.4238C161.354 14.1367 161.56 13.6855 161.56 13.0703C161.56 12.4609 161.349 12.0273 160.927 11.7695C160.511 11.5117 159.863 11.3828 158.984 11.3828H158.158V14.8545ZM158.158 17.0693V22H155.434V9.15039H159.178C160.924 9.15039 162.216 9.46973 163.054 10.1084C163.892 10.7412 164.311 11.7051 164.311 13C164.311 13.7559 164.103 14.4297 163.687 15.0215C163.271 15.6074 162.682 16.0674 161.92 16.4014C163.854 19.29 165.113 21.1562 165.699 22H162.676L159.608 17.0693H158.158ZM177.978 15.4521C177.978 17.5674 177.374 19.1875 176.167 20.3125C174.966 21.4375 173.229 22 170.955 22H167.316V9.15039H171.351C173.448 9.15039 175.077 9.7041 176.237 10.8115C177.397 11.9189 177.978 13.4658 177.978 15.4521ZM175.147 15.5225C175.147 12.7627 173.929 11.3828 171.491 11.3828H170.041V19.75H171.21C173.835 19.75 175.147 18.3408 175.147 15.5225Z" fill="white"/>
<path d="M34.6 15.5L31 6L27.4 15.5L21 8L23 23H31H39L41 8L34.6 15.5Z" fill="white"/>
</svg>
