<svg width="334" height="722" viewBox="0 0 334 722" fill="none" xmlns="http://www.w3.org/2000/svg">
<path d="M50 35C39 35 30 26 30 15C30 26 21 35 10 35C21 35 30 44 30 55C30 44 39 35 50 35Z" fill="#F2C94C"/>
<path d="M324 106C313 106 304 97 304 86C304 97 295 106 284 106C295 106 304 115 304 126C304 115 313 106 324 106Z" fill="#F2C94C"/>
<path d="M77 583C66 583 57 574 57 563C57 574 48 583 37 583C48 583 57 592 57 603C57 592 66 583 77 583Z" fill="#F2C94C"/>
<path d="M304 682C293 682 284 673 284 662C284 673 275 682 264 682C275 682 284 691 284 702C284 691 293 682 304 682Z" fill="#F2C94C"/>
<path d="M264 545C258.5 545 254 540.5 254 535C254 540.5 249.5 545 244 545C249.5 545 254 549.5 254 555C254 549.5 258.5 545 264 545Z" fill="#F2C94C"/>
<path d="M113 672C107.5 672 103 667.5 103 662C103 667.5 98.5 672 93 672C98.5 672 103 676.5 103 682C103 676.5 107.5 672 113 672Z" fill="#F2C94C"/>
<path d="M37 712C31.5 712 27 707.5 27 702C27 707.5 22.5 712 17 712C22.5 712 27 716.5 27 722C27 716.5 31.5 712 37 712Z" fill="#F2C94C"/>
<path d="M20 330C14.5 330 10 325.5 10 320C10 325.5 5.5 330 0 330C5.5 330 10 334.5 10 340C10 334.5 14.5 330 20 330Z" fill="#F2C94C"/>
<path d="M334 401C328.5 401 324 396.5 324 391C324 396.5 319.5 401 314 401C319.5 401 324 405.5 324 411C324 405.5 328.5 401 334 401Z" fill="#F2C94C"/>
<path d="M213 10C207.5 10 203 5.5 203 0C203 5.5 198.5 10 193 10C198.5 10 203 14.5 203 20C203 14.5 207.5 10 213 10Z" fill="#F2C94C"/>
<path d="M82 163C76.5 163 72 158.5 72 153C72 158.5 67.5 163 62 163C67.5 163 72 167.5 72 173C72 167.5 76.5 163 82 163Z" fill="#F2C94C"/>
</svg>
