<svg width="193" height="86" viewBox="0 0 193 86" fill="none" xmlns="http://www.w3.org/2000/svg">
<path d="M9.6 34.7L24.8 38.7V78C24.8 79.7 24 81.3 22.3 82.9C20.6 84.4 18.9 85.2 17.1 85.2H0V77H16.7L13.8 44.8L0 41.3V5.6C0 4.3 0.5 3.1 1.4 1.9C2.5 0.6 3.6 0 4.8 0H24.8V5.9L7.8 8.2L9.6 34.7ZM113.9 85.2H106.9L103.8 51.8H77.7L72.2 85.2H66.6L71.9 0H113.9V85.2ZM106.3 6.6C106.3 6.1 106.1 5.9 105.6 5.9H80.4C79.9 5.9 79.7 6.1 79.7 6.6V45.6C79.7 46 79.9 46.2 80.4 46.2H105.6C106.1 46.2 106.3 46 106.3 45.5V6.6V6.6ZM155.1 85.2H138C133.9 85.2 130.9 84.5 128.9 83.2C126.9 81.8 125.9 80 125.9 77.8V6.8C125.9 4.9 126.7 3.3 128.4 2C130.1 0.7 132.4 0.1 135.5 0.1H155.2V6.8L153.3 21.8H145.4L144.2 8.2C144.2 7.5 143.7 7.1 142.8 7.1H137.8C136.3 7.1 135.2 7.7 134.4 9C133.8 10.2 133.4 11.6 133.4 13.1C133.4 14 133.5 14.5 133.8 14.7L136.2 74.6C136 74.7 135.8 74.8 135.8 75C135.8 75.2 136.2 75.4 136.9 75.4H144C145 75.4 145.4 75.2 145.4 74.7L147.8 65.3H155.2V85.2H155.1ZM192.2 85.2H166.5V0H192.2V7.4L177.2 6.7V34L192.2 36.8V42.6L175.2 41.9V76.3L192.2 75.3V85.2Z" fill="#F2C94C"/>
<path d="M35.1 85.2L37.8 0H59.8V10.6H45V34.5H58.1V40.5L45.6 42.7V85.3H35.1V85.2Z" fill="#EB5757"/>
<path d="M89.3 23.9H84.7V14.8L89.3 15.8V23.9Z" fill="#EB5757"/>
<path d="M102.7 23.9H98.1V15.8L102.7 14.8V23.9Z" fill="#EB5757"/>
<path d="M100.3 30C100.3 30 97.1 33 93.8 33C90.2 33 86.3 30 86.3 30L84.3 33.6C84.3 33.6 88.5 37.6 93.8 37.6C98.4 37.6 102.3 33.6 102.3 33.6L100.3 30Z" fill="#EB5757"/>
</svg>
