<svg width="68" height="30" viewBox="0 0 68 30" fill="none" xmlns="http://www.w3.org/2000/svg">
<path d="M3.37632 12.204L8.72216 13.6108V27.4326C8.72216 28.0305 8.4408 28.5932 7.84291 29.1559C7.24502 29.6835 6.64713 29.9648 6.01407 29.9648H0V27.0809H5.87339L4.85346 15.7562L0 14.5252V1.96952C0 1.51231 0.17585 1.09027 0.49238 0.66823C0.87925 0.21102 1.26612 0 1.68816 0H8.72216V2.07503L2.74326 2.88394L3.37632 12.204ZM40.0586 29.9648H37.5967L36.5064 18.2181H27.3271L25.3927 29.9648H23.4232L25.2872 0H40.0586V29.9648ZM37.3857 2.32122C37.3857 2.14537 37.3154 2.07503 37.1395 2.07503H28.2767C28.1008 2.07503 28.0305 2.14537 28.0305 2.32122V16.0375C28.0305 16.1782 28.1008 16.2485 28.2767 16.2485H37.1395C37.3154 16.2485 37.3857 16.1782 37.3857 16.0023V2.32122V2.32122ZM54.5487 29.9648H48.5346C47.0926 29.9648 46.0375 29.7186 45.3341 29.2614C44.6307 28.769 44.279 28.136 44.279 27.3623V2.39156C44.279 1.72333 44.5604 1.16061 45.1583 0.7034C45.7561 0.24619 46.5651 0.03517 47.6553 0.03517H54.5838V2.39156L53.9156 7.66706H51.1372L50.7151 2.88394C50.7151 2.63775 50.5393 2.49707 50.2227 2.49707H48.4642C47.9367 2.49707 47.5498 2.70809 47.2685 3.1653C47.0574 3.58734 46.9168 4.07972 46.9168 4.60727C46.9168 4.9238 46.9519 5.09965 47.0574 5.16999L47.9015 26.2368C47.8312 26.272 47.7608 26.3072 47.7608 26.3775C47.7608 26.4478 47.9015 26.5182 48.1477 26.5182H50.6448C50.9965 26.5182 51.1372 26.4478 51.1372 26.272L51.9812 22.966H54.5838V29.9648H54.5487ZM67.5967 29.9648H58.558V0H67.5967V2.60258L62.3212 2.35639V11.9578L67.5967 12.9426V14.9824L61.6178 14.7362V26.8347L67.5967 26.483V29.9648Z" fill="#F2C94C"/>
<path d="M12.3447 29.9648L13.2943 0H21.0317V3.72802H15.8265V12.1336H20.4338V14.2438L16.0375 15.0176V30H12.3447V29.9648Z" fill="#EB5757"/>
<path d="M31.4068 8.40561H29.789V5.20514L31.4068 5.55684V8.40561Z" fill="#EB5757"/>
<path d="M36.1196 8.40561H34.5017V5.55684L36.1196 5.20514V8.40561Z" fill="#EB5757"/>
<path d="M35.2755 10.551C35.2755 10.551 34.1501 11.6061 32.9894 11.6061C31.7233 11.6061 30.3517 10.551 30.3517 10.551L29.6483 11.8171C29.6483 11.8171 31.1254 13.2239 32.9894 13.2239C34.6073 13.2239 35.9789 11.8171 35.9789 11.8171L35.2755 10.551Z" fill="#EB5757"/>
</svg>
