<svg width="61" height="29" viewBox="0 0 61 29" fill="none" xmlns="http://www.w3.org/2000/svg">
<path d="M7.17375 6.24L6.37375 3.12L3.97375 3.4L3.37375 12.28L9.17375 13.32L8.61375 26.6C8.61375 27.1333 8.26708 27.6667 7.57375 28.2C6.88042 28.7333 6.24042 29 5.65375 29H0.97375L0.61375 22.16H2.97375L2.93375 25.64L5.73375 26.28L6.37375 15.64L0.97375 14.44V1.56L2.57375 0.599998H8.85375L8.65375 6.24H7.17375ZM22.4162 29H16.6963C15.3363 29 14.3229 28.7733 13.6563 28.32C12.9896 27.84 12.6563 27.24 12.6563 26.52V2.84C12.6563 2.2 12.9363 1.66667 13.4963 1.24C14.0563 0.813332 14.8429 0.599998 15.8563 0.599998H22.4162V2.84L21.7763 7.84H19.1363L18.7363 3.32C18.7363 3.08 18.5763 2.96 18.2563 2.96H16.5763C16.0696 2.96 15.6963 3.17333 15.4563 3.6C15.2429 4 15.1363 4.45333 15.1363 4.96C15.1363 5.25333 15.1763 5.42667 15.2563 5.48L16.0563 25.44C15.9763 25.4667 15.9362 25.5067 15.9362 25.56C15.9362 25.64 16.0563 25.68 16.2963 25.68H18.6563C18.9763 25.68 19.1363 25.6 19.1363 25.44L19.9363 22.32H22.4162V29ZM28.8956 29C27.8023 29 27.0423 28.8267 26.6156 28.48C26.189 28.1333 25.9756 27.56 25.9756 26.76V1.56C26.5623 1.24 27.3223 0.999999 28.2556 0.839998C29.2156 0.679998 30.4823 0.599998 32.0556 0.599998C32.7756 0.599998 33.3623 0.786665 33.8156 1.16C34.269 1.50667 34.4956 1.96 34.4956 2.52L34.2156 29H28.8956ZM31.3756 26.72L31.7356 26.36L31.9756 3.52C31.9756 3.38667 31.8556 3.30667 31.6156 3.28L29.1356 3.16L28.7756 3.4L28.5356 26.48L31.3756 26.72ZM38.4766 1.04C38.4766 0.906664 39.0232 0.799998 40.1166 0.719999C41.2099 0.639999 42.2899 0.599998 43.3566 0.599998H45.0766C45.5032 0.599998 45.8499 0.759999 46.1166 1.08C46.3832 1.4 46.5299 1.81333 46.5566 2.32L46.9566 13.84L45.1566 16.2L48.3566 28.12L47.5966 29H45.2366L43.1966 16.56L41.1566 16.76L40.3166 29H38.4766V1.04ZM43.9966 13.6C44.1566 13.6 44.2366 13.52 44.2366 13.36V3.4L43.6366 2.8L40.8766 3.08L40.9966 13.76L43.9966 13.6ZM60.49 28.2H51.09L52.01 0.599998H60.13V3.72H54.41V11.96H58.77V13.96L54.61 14.68V24.88L60.01 24.16L60.49 28.2Z" fill="#F2F2F2"/>
</svg>
