<svg width="38" height="30" viewBox="0 0 38 30" fill="none" xmlns="http://www.w3.org/2000/svg">
<path d="M33.5273 4.8C33.5273 4.7 33.4273 4.7 33.4273 4.6C34.8273 3.7 35.8273 2.4 36.6273 0.8C35.3273 1.3 34.0273 1.7 32.8273 2.2C32.1273 2.5 31.7273 2.4 31.1273 1.9C29.9273 0.9 28.6273 0.3 27.0273 0.1C26.8273 0.1 26.7273 0 26.5273 0C26.0273 0 25.5273 0 25.0273 0C24.2273 0.2 23.3273 0.4 22.5273 0.7C19.3273 2 17.3273 5.5 18.1273 9C18.1273 9.1 18.1273 9.1 18.1273 9.3C11.7273 8.9 6.42725 6.3 2.22725 1.5C-0.0727458 3.5 1.02725 8.4 4.32725 11.5C3.22725 11.3 2.22725 11 1.12725 10.8C0.727254 13.5 3.22725 16.6 7.02725 18.1C6.52725 18.2 6.02725 18.2 5.52725 18.3C5.02725 18.3 4.42725 18.3 3.92725 18.3C4.32725 20.9 6.82725 22.8 10.9273 23.5C10.3273 24.3 8.02725 25.5 5.72725 26.1C3.82725 26.5 1.82725 26.7 0.0272542 27C-0.0727458 27 0.127254 27.1 0.227254 27.1C3.22725 28.6 6.42725 29.7 9.82725 29.9C10.0273 29.9 10.1273 30 10.3273 30C11.1273 30 11.8273 30 12.6273 30C14.1273 29.8 15.6273 29.7 17.1273 29.3C26.1273 27.1 32.6273 19.8 33.6273 10.6C33.7273 9.7 33.6273 8.8 33.7273 8C33.7273 7.7 33.9273 7.3 34.2273 7C35.0273 6.2 35.9273 5.4 36.7273 4.6C36.9273 4.4 37.1273 4.1 37.4273 3.7C36.0273 4.1 34.7273 4.4 33.5273 4.8Z" fill="white"/>
</svg>
